<svg width="77" height="80" viewBox="0 0 77 80" fill="none" xmlns="http://www.w3.org/2000/svg">
<path d="M72.0224 57.2424C73.4794 58.2268 74.5623 59.5657 75.2711 61.2589C75.9799 62.9522 76.1965 64.6454 75.9208 66.3387C75.6452 68.0319 74.897 69.5873 73.6763 71.0049C72.495 72.3832 71.0971 73.3282 69.4826 73.8401C68.7738 73.9977 68.0256 74.0961 67.238 74.1355C66.4505 74.1749 65.407 74.1355 64.1075 74.0173C62.8474 73.8992 62.0992 73.8008 61.863 73.722C58.0827 73.5645 54.1252 72.7179 49.9906 71.1821C45.8953 69.6464 42.3513 67.9335 39.3585 66.0433C36.3658 64.1138 33.4519 62.0071 30.6167 59.7232C27.8208 57.4393 25.7732 55.6476 24.4737 54.3481C23.1743 53.0487 22.2095 52.0052 21.5795 51.2176L20.3391 49.8591L20.4572 55.4113C20.5359 62.1056 20.6147 66.5159 20.6935 68.6423C20.7722 71.5562 20.024 73.9189 18.4489 75.7303C16.7557 77.6598 14.6096 78.7624 12.0107 79.038C9.2542 79.2743 6.87185 78.5458 4.86358 76.8525C2.6978 75.0018 1.57553 72.8557 1.49678 70.4143C1.49678 68.2485 1.41802 63.7791 1.26051 57.0061C1.18175 49.7606 1.103 44.9171 1.02424 42.4757C0.787975 35.2302 0.453264 27.3743 0.0201078 18.9081C-0.137403 16.0729 0.630464 13.6905 2.32371 11.761C3.9382 9.91027 6.00554 8.82738 8.52572 8.51236H8.76198L8.88012 8.39422C10.0221 7.68542 11.5578 6.95693 13.4873 6.20875C23.253 2.27097 32.9203 0.20364 42.4891 0.0067505C45.6393 -0.0720051 48.2186 0.538349 50.2268 1.83782C52.6289 3.37355 54.2827 5.79529 55.1884 9.10303C56.8817 15.7185 55.3066 22.2946 50.4631 28.8313C49.4786 30.1308 47.9429 31.9815 45.8559 34.3836C44.6352 35.8406 43.7098 36.9234 43.0797 37.6323C42.5285 38.4198 42.4103 39.1877 42.7253 39.9358C43.9461 42.2591 45.5015 44.3659 47.3916 46.256C49.2818 48.1067 51.1522 49.5243 53.003 50.5088C54.8537 51.4539 56.6454 52.2808 58.378 52.9896C60.1107 53.659 61.5086 54.0725 62.5718 54.23L64.1666 54.5844C65.8598 54.8994 67.1396 55.1751 68.0059 55.4113C69.6204 55.9232 70.9592 56.5336 72.0224 57.2424ZM32.4477 22.393C32.8415 20.621 32.2705 19.3806 30.7348 18.6718C29.8291 18.2781 28.6281 18.2781 27.1317 18.6718C25.9898 18.9869 23.8437 19.7153 20.6935 20.8573C19.9059 21.0936 19.5515 21.6055 19.6303 22.393L20.1028 33.4385C20.1028 34.1473 20.4572 34.6198 21.166 34.8561C21.9142 35.0924 22.5245 34.9349 22.9971 34.3836C25.1628 31.6271 26.6986 29.8158 27.6043 28.9494C28.9825 27.4137 29.9866 26.2914 30.6167 25.5826C31.6799 24.3619 32.2902 23.2987 32.4477 22.393Z" fill="#151515"/>
<path d="M72.0224 57.2424C73.4794 58.2268 74.5623 59.5657 75.2711 61.2589C75.9799 62.9522 76.1965 64.6454 75.9208 66.3387C75.6452 68.0319 74.897 69.5873 73.6763 71.0049C72.495 72.3832 71.0971 73.3282 69.4826 73.8401C68.7738 73.9977 68.0256 74.0961 67.238 74.1355C66.4505 74.1749 65.407 74.1355 64.1075 74.0173C62.8474 73.8992 62.0992 73.8008 61.863 73.722C58.0827 73.5645 54.1252 72.7179 49.9906 71.1821C45.8953 69.6464 42.3513 67.9335 39.3585 66.0433C36.3658 64.1138 33.4519 62.0071 30.6167 59.7232C27.8208 57.4393 25.7732 55.6476 24.4737 54.3481C23.1743 53.0487 22.2095 52.0052 21.5795 51.2176L20.3391 49.8591L20.4572 55.4113C20.5359 62.1056 20.6147 66.5159 20.6935 68.6423C20.7722 71.5562 20.024 73.9189 18.4489 75.7303C16.7557 77.6598 14.6096 78.7624 12.0107 79.038C9.2542 79.2743 6.87185 78.5458 4.86358 76.8525C2.6978 75.0018 1.57553 72.8557 1.49678 70.4143C1.49678 68.2485 1.41802 63.7791 1.26051 57.0061C1.18175 49.7606 1.103 44.9171 1.02424 42.4757C0.787975 35.2302 0.453264 27.3743 0.0201078 18.9081C-0.137403 16.0729 0.630464 13.6905 2.32371 11.761C3.9382 9.91027 6.00554 8.82738 8.52572 8.51236H8.76198L8.88012 8.39422C10.0221 7.68542 11.5578 6.95693 13.4873 6.20875C23.253 2.27097 32.9203 0.20364 42.4891 0.0067505C45.6393 -0.0720051 48.2186 0.538349 50.2268 1.83782C52.6289 3.37355 54.2827 5.79529 55.1884 9.10303C56.8817 15.7185 55.3066 22.2946 50.4631 28.8313C49.4786 30.1308 47.9429 31.9815 45.8559 34.3836C44.6352 35.8406 43.7098 36.9234 43.0797 37.6323C42.5285 38.4198 42.4103 39.1877 42.7253 39.9358C43.9461 42.2591 45.5015 44.3659 47.3916 46.256C49.2818 48.1067 51.1522 49.5243 53.003 50.5088C54.8537 51.4539 56.6454 52.2808 58.378 52.9896C60.1107 53.659 61.5086 54.0725 62.5718 54.23L64.1666 54.5844C65.8598 54.8994 67.1396 55.1751 68.0059 55.4113C69.6204 55.9232 70.9592 56.5336 72.0224 57.2424ZM32.4477 22.393C32.8415 20.621 32.2705 19.3806 30.7348 18.6718C29.8291 18.2781 28.6281 18.2781 27.1317 18.6718C25.9898 18.9869 23.8437 19.7153 20.6935 20.8573C19.9059 21.0936 19.5515 21.6055 19.6303 22.393L20.1028 33.4385C20.1028 34.1473 20.4572 34.6198 21.166 34.8561C21.9142 35.0924 22.5245 34.9349 22.9971 34.3836C25.1628 31.6271 26.6986 29.8158 27.6043 28.9494C28.9825 27.4137 29.9866 26.2914 30.6167 25.5826C31.6799 24.3619 32.2902 23.2987 32.4477 22.393Z" fill="#151515"/>
</svg>
