<svg width="682" height="100" viewBox="0 0 682 100" fill="none" xmlns="http://www.w3.org/2000/svg">
<path d="M30.4919 1.84766L0 50.1096V98.4482H100.645L131.167 50.1096V1.84766H30.4919Z" fill="white"/>
<path d="M177.028 3.97656L117.59 97.85H143.352L186.411 80.7361V97.85H207.412V3.97656H177.028ZM186.396 60.3435L157.572 72.0336L186.396 26.0852V60.3435Z" fill="white"/>
<path d="M246.569 33.2458C244.197 34.5328 242.222 36.2028 240.554 38.1945V31.729H220.471V97.8402H240.554V64.5165C240.462 61.4369 241.013 58.6944 242.207 56.3196C243.401 53.9448 245.008 52.1369 247.029 50.8959C249.049 49.6548 251.391 49.042 254.024 49.042C255.524 49.042 256.948 49.1799 258.31 49.4403C259.672 49.7008 260.974 50.0992 262.198 50.6354H262.336V30.4113C261.188 30.3347 260.178 30.2734 259.305 30.2734C254.453 30.2734 250.213 31.2693 246.554 33.2458" fill="white"/>
<path d="M299.864 30.277C293.252 30.277 287.251 31.7326 281.833 34.6436C276.414 37.5546 272.174 41.6454 269.082 46.9466C266.005 52.2324 264.459 58.315 264.459 65.1942C264.459 72.0735 265.959 78.3399 268.944 83.5031C271.944 88.6664 276.123 92.5886 281.496 95.2699C286.869 97.9664 292.9 99.2994 299.589 99.2994C303.201 99.2994 306.416 98.901 309.232 98.1043C312.049 97.3076 314.651 96.1585 317.024 94.6723V75.628H316.503C314.468 77.3133 312.08 78.6922 309.309 79.7954C306.538 80.8985 303.921 81.4501 301.456 81.4501C297.936 81.4501 294.92 80.73 292.41 79.2745C289.9 77.8189 288.001 75.8118 286.731 73.2532C285.46 70.6945 284.818 67.8295 284.818 64.658C284.818 61.4865 285.46 58.6367 286.731 56.124C288.001 53.6113 289.884 51.6502 292.349 50.2406C294.813 48.8311 297.813 48.1263 301.334 48.1263C303.89 48.1263 306.554 48.6472 309.324 49.7044C312.095 50.7616 314.498 51.9566 316.519 53.2743H317.039V34.4904C314.835 33.1728 312.309 32.1309 309.447 31.3802C306.584 30.6294 303.385 30.2617 299.864 30.2617" fill="white"/>
<path d="M381.7 33.5217C378.042 31.3614 373.526 30.2889 368.169 30.2889C362.811 30.2889 358.188 31.6985 353.841 34.5176C351.285 36.1723 349.065 38.1794 347.167 40.5082V1.31641H327.1V97.8404H347.167V62.2797C347.167 59.813 347.764 57.4688 348.958 55.2626C350.152 53.0563 351.79 51.325 353.918 50.038C356.03 48.7664 358.28 48.1229 360.653 48.1229C363.301 48.1229 365.536 48.6744 367.388 49.7776C369.24 50.8807 370.618 52.4588 371.552 54.5272C372.47 56.5955 372.945 58.955 372.945 61.6056V97.8404H392.752V57.7753C392.752 51.9532 391.834 47.0044 389.982 42.8983C388.129 38.8075 385.374 35.6667 381.731 33.5064" fill="white"/>
<path d="M414.915 0C411.746 0 409.006 1.04185 406.726 3.11022C404.43 5.17859 403.297 7.89045 403.297 11.2458C403.297 14.7697 404.414 17.5888 406.664 19.7032C408.915 21.8175 411.655 22.8747 414.915 22.8747C418.175 22.8747 420.931 21.8175 423.166 19.7032C425.416 17.5888 426.533 14.7697 426.533 11.2458C426.533 7.72192 425.416 5.17859 423.166 3.11022C420.915 1.04185 418.16 0 414.915 0Z" fill="white"/>
<path d="M424.958 31.7266H404.875V97.8378H424.958V31.7266Z" fill="white"/>
<path d="M469.347 30.277C462.75 30.277 456.734 31.7326 451.315 34.6436C445.896 37.5546 441.656 41.6454 438.564 46.9466C435.487 52.2324 433.941 58.315 433.941 65.1942C433.941 72.0735 435.442 78.3399 438.426 83.5031C441.427 88.6664 445.605 92.5886 450.978 95.2699C456.351 97.9664 462.382 99.2994 469.071 99.2994C472.684 99.2994 475.898 98.901 478.715 98.1043C481.531 97.3076 484.134 96.1585 486.506 94.6723V75.628H485.971C483.95 77.3133 481.547 78.6922 478.776 79.7954C476.006 80.8985 473.388 81.4501 470.908 81.4501C467.388 81.4501 464.372 80.73 461.862 79.2745C459.351 77.8189 457.453 75.8118 456.183 73.2532C454.912 70.6945 454.269 67.8295 454.269 64.658C454.269 61.4865 454.912 58.6367 456.183 56.124C457.453 53.6113 459.336 51.6502 461.801 50.2406C464.265 48.8311 467.265 48.1263 470.786 48.1263C473.342 48.1263 476.006 48.6472 478.776 49.7044C481.547 50.7616 483.95 51.9566 485.971 53.2743H486.506V34.4904C484.302 33.1728 481.776 32.1309 478.914 31.3802C476.051 30.6294 472.852 30.2617 469.332 30.2617" fill="white"/>
<path d="M558.776 82.643C561.776 77.4491 563.261 71.4891 563.261 64.7937C563.261 58.0983 561.761 52.1537 558.776 46.9445C555.775 41.7505 551.581 37.6444 546.163 34.6415C540.744 31.6385 534.652 30.1523 527.87 30.1523C521.089 30.1523 514.859 31.6538 509.441 34.6415C504.022 37.6444 499.797 41.7352 496.751 46.9445C493.72 52.1537 492.189 58.0983 492.189 64.7937C492.189 71.4891 493.705 77.4491 496.751 82.643C499.782 87.8369 504.022 91.943 509.441 94.9307C514.859 97.9336 520.998 99.4351 527.87 99.4351C534.743 99.4351 540.759 97.9336 546.163 94.9307C551.581 91.943 555.791 87.8369 558.776 82.643ZM541.004 73.4503C539.642 75.9629 537.835 77.9241 535.585 79.3336C533.335 80.7432 530.764 81.448 527.855 81.448C524.947 81.448 522.222 80.7432 519.926 79.3336C517.63 77.9241 515.839 75.9629 514.507 73.4503C513.191 70.9376 512.517 68.0572 512.517 64.7937C512.517 61.5303 513.176 58.6499 514.507 56.1372C515.824 53.6245 517.63 51.6634 519.926 50.2539C522.207 48.8443 524.855 48.1395 527.855 48.1395C530.855 48.1395 533.335 48.8443 535.585 50.2539C537.835 51.6634 539.642 53.6245 541.004 56.1372C542.366 58.6499 543.055 61.5456 543.055 64.7937C543.055 68.0418 542.366 70.9376 541.004 73.4503Z" fill="white"/>
<path d="M678.842 42.1168C677.081 38.2865 674.418 35.3601 670.851 33.3224C667.285 31.3 662.907 30.2734 657.702 30.2734C651.978 30.2734 646.972 31.6677 642.701 34.4408C639.303 36.6624 636.487 39.5122 634.252 42.9901C634.145 42.7143 634.038 42.4385 633.915 42.1781C632.155 38.3018 629.553 35.3448 626.124 33.3224C622.695 31.3 618.501 30.2734 613.572 30.2734C608.015 30.2734 602.979 31.683 598.448 34.5021C595.892 36.0955 593.688 38.0107 591.774 40.2476V31.729H571.691V97.8402H591.774V62.9384C591.774 59.9354 592.387 57.2542 593.627 54.8794C594.866 52.5046 596.489 50.6201 598.51 49.2565C600.53 47.8929 602.643 47.2034 604.847 47.2034C607.495 47.2034 609.684 47.755 611.444 48.8581C613.204 49.9613 614.506 51.5087 615.347 53.4852C616.189 55.4616 616.603 57.7904 616.603 60.4257V97.8402H636.548V63.061C636.548 60.0733 637.16 57.3308 638.4 54.8641C639.625 52.3973 641.263 50.4975 643.283 49.1799C645.304 47.8623 647.416 47.2034 649.62 47.2034C652.345 47.2034 654.595 47.755 656.355 48.8581C658.116 49.9613 659.386 51.5087 660.182 53.4852C660.978 55.4616 661.376 57.7904 661.376 60.4257V97.8402H681.459V56.0591C681.459 50.5894 680.571 45.9471 678.811 42.1168" fill="white"/>
</svg>
