<svg width="1015" height="1015" viewBox="0 0 1015 1015" fill="none" xmlns="http://www.w3.org/2000/svg">
<path d="M426.656 505.689C426.656 455.596 465.172 421.755 508.364 421.755C551.555 421.755 590.071 455.596 590.071 505.689C590.071 555.782 551.555 589.622 508.364 589.622C465.172 589.622 426.656 555.782 426.656 505.689ZM446.248 505.689C446.248 544.205 473.855 571.366 508.364 571.366C542.427 571.366 570.479 544.205 570.479 505.689C570.479 467.173 542.427 440.011 508.364 440.011C473.855 440.011 446.248 467.173 446.248 505.689Z" fill="#181D1F"/>
<path d="M651.29 231.77V122.886H671.987V184.077L708.731 152.282H737.977L701.233 182.277L741.127 231.77H713.231L685.035 195.475L671.987 206.124V231.77H651.29Z" fill="#181D1F"/>
<path d="M96.5857 430.942H21.5968C22.0467 439.791 28.0458 453.439 48.5928 453.439C62.2408 453.439 68.2399 448.639 72.2893 442.04H94.786C90.2866 450.889 79.4882 468.437 49.1927 468.437C13.348 468.437 0 447.59 0 426.443C0 399.897 19.6471 382.949 47.8429 382.949C83.0877 382.949 96.5857 404.696 96.5857 427.943V430.942ZM21.5968 417.744H74.9889C72.4393 401.846 58.3414 397.047 48.1429 397.047C38.5443 397.047 25.0463 401.546 21.5968 417.744Z" fill="#181D1F"/>
<path d="M461.268 261.726V246.728L514.81 198.135H464.117V182.238H544.355V196.336L489.763 245.828H546.305V261.726H461.268Z" fill="#181D1F"/>
<path d="M372.564 407.037H395.061C395.661 419.035 409.459 420.835 416.958 420.835C427.306 420.835 438.555 418.136 438.555 410.637C438.555 404.488 435.105 402.388 412.758 399.388C388.162 396.089 375.264 393.239 375.264 375.092C375.264 352.445 401.66 349.446 415.008 349.446C427.306 349.446 456.852 351.246 458.052 376.742H436.455C434.805 364.894 421.007 363.544 413.958 363.544C402.26 363.544 395.961 368.493 395.961 372.692C395.961 379.141 397.911 380.191 417.858 383.041C443.954 386.79 461.051 389.34 461.051 407.787C461.051 428.034 441.704 434.933 417.108 434.933C400.16 434.933 373.314 431.334 372.564 407.037Z" fill="#181D1F"/>
<path d="M327.521 416.584H252.532C252.982 425.432 258.981 439.08 279.528 439.08C293.176 439.08 299.175 434.281 303.225 427.682H325.721C321.222 436.531 310.424 454.078 280.128 454.078C244.284 454.078 230.936 433.231 230.936 412.084C230.936 385.538 250.583 368.591 278.778 368.591C314.023 368.591 327.521 390.338 327.521 413.584V416.584ZM252.532 403.386H305.924C303.375 387.488 289.277 382.689 279.078 382.689C269.48 382.689 255.982 387.188 252.532 403.386Z" fill="#181D1F"/>
<path d="M803.869 414.363L880.861 337.371L895.496 352.006L852.228 395.274L900.693 398.774L921.373 419.454L874.18 414.681L867.393 477.887L847.668 458.162L853.394 412.56L836.638 410.863L818.504 428.998L803.869 414.363Z" fill="#181D1F"/>
<path d="M270.797 162.964L217.772 109.939C211.833 116.514 206.424 130.406 220.953 144.935C230.604 154.586 238.239 155.434 245.769 153.631L261.677 169.539C252.238 172.615 232.195 177.387 210.772 155.965C185.426 130.619 190.729 106.439 205.682 91.486C224.453 72.7151 250.329 74.624 270.267 94.5615C295.188 119.483 289.356 144.405 272.918 160.843L270.797 162.964ZM227.104 100.606L264.858 138.36C274.296 125.316 267.721 111.954 260.51 104.742C253.723 97.9551 240.997 91.5921 227.104 100.606Z" fill="#181D1F"/>
<path d="M648.32 301.179L658.925 290.574L731.145 294.073L695.3 258.228L706.541 246.987L763.278 303.724L753.309 313.693L679.711 310.087L719.692 350.068L708.45 361.309L648.32 301.179Z" fill="#181D1F"/>
<path d="M482.847 341.207L498.755 357.115C490.695 366.023 499.179 377.052 504.481 382.355C511.799 389.672 521.661 395.717 526.964 390.415C531.312 386.066 530.358 382.143 516.677 364.22C501.618 344.495 494.513 333.359 507.345 320.527C523.358 304.514 544.144 321.058 553.583 330.496C562.279 339.192 581.898 361.357 564.718 380.234L549.447 364.962C556.658 355.418 547.856 344.707 542.871 339.722C534.6 331.451 526.646 330.496 523.676 333.466C519.116 338.026 519.753 340.147 531.842 356.266C547.644 377.37 557.931 391.263 544.886 404.307C530.57 418.624 512.011 409.822 494.619 392.429C482.635 380.446 466.197 358.918 482.847 341.207Z" fill="#181D1F"/>
<path d="M444.246 316.106L391.221 263.081C385.282 269.656 379.874 283.549 394.402 298.078C404.053 307.729 411.689 308.577 419.218 306.774L435.126 322.682C425.687 325.757 405.644 330.529 384.222 309.107C358.876 283.761 364.178 259.582 379.131 244.629C397.902 225.858 423.778 227.767 443.716 247.704C468.638 272.626 462.805 297.548 446.367 313.985L444.246 316.106ZM400.553 253.749L438.307 291.503C447.746 278.459 441.171 265.096 433.959 257.885C427.172 251.098 414.446 244.735 400.553 253.749Z" fill="#181D1F"/>
<path d="M782.659 651.291H891.543V671.987H830.352L862.147 708.732V737.978L832.152 701.233L782.659 741.127V713.231L818.954 685.036L808.305 671.987H782.659V651.291Z" fill="#181D1F"/>
<path d="M583.487 96.5857V21.5968C574.638 22.0467 560.99 28.0458 560.99 48.5928C560.99 62.2408 565.789 68.2399 572.388 72.2893V94.786C563.54 90.2866 545.992 79.4882 545.992 49.1927C545.992 13.348 566.839 0 587.986 0C614.532 0 631.479 19.6471 631.479 47.8429C631.479 83.0877 609.733 96.5857 586.486 96.5857H583.487ZM596.685 21.5968V74.9889C612.582 72.4393 617.382 58.3414 617.382 48.1429C617.382 38.5443 612.882 25.0463 596.685 21.5968Z" fill="#181D1F"/>
<path d="M752.703 461.267H767.701L816.294 514.809V464.117H832.191V544.355H818.093L768.601 489.763V546.304H752.703V461.267Z" fill="#181D1F"/>
<path d="M607.392 372.565V395.062C595.394 395.662 593.594 409.459 593.594 416.958C593.594 427.307 596.294 438.555 603.792 438.555C609.942 438.555 612.041 435.106 615.041 412.759C618.34 388.163 621.19 375.265 639.337 375.265C661.984 375.265 664.983 401.661 664.983 415.009C664.983 427.307 663.184 456.852 637.687 458.052V436.455C649.536 434.806 650.885 421.008 650.885 413.959C650.885 402.261 645.936 395.961 641.737 395.961C635.288 395.961 634.238 397.911 631.388 417.858C627.639 443.954 625.089 461.052 606.642 461.052C586.395 461.052 579.496 441.705 579.496 417.108C579.496 400.161 583.096 373.315 607.392 372.565Z" fill="#181D1F"/>
<path d="M597.846 327.521V252.532C588.997 252.982 575.349 258.981 575.349 279.528C575.349 293.176 580.149 299.175 586.748 303.225V325.721C577.899 321.222 560.352 310.424 560.352 280.128C560.352 244.284 581.198 230.936 602.345 230.936C628.891 230.936 645.839 250.583 645.839 278.778C645.839 314.023 624.092 327.521 600.846 327.521H597.846ZM611.044 252.532V305.924C626.942 303.375 631.741 289.277 631.741 279.078C631.741 269.48 627.242 255.982 611.044 252.532Z" fill="#181D1F"/>
<path d="M600.116 803.883L677.108 880.876L662.473 895.511L619.205 852.242L615.705 900.707L595.025 921.387L599.798 874.195L536.592 867.408L556.317 847.682L601.919 853.409L603.616 836.653L585.481 818.518L600.116 803.883Z" fill="#181D1F"/>
<path d="M851.516 270.812L904.541 217.787C897.966 211.848 884.073 206.439 869.544 220.968C859.894 230.619 859.045 238.255 860.848 245.784L844.94 261.692C841.865 252.253 837.093 232.21 858.515 210.787C883.861 185.441 908.04 190.744 922.993 205.697C941.764 224.468 939.855 250.344 919.918 270.282C894.996 295.204 870.074 289.371 853.637 272.933L851.516 270.812ZM913.873 227.119L876.119 264.873C889.163 274.312 902.526 267.737 909.737 260.525C916.524 253.738 922.887 241.012 913.873 227.119Z" fill="#181D1F"/>
<path d="M713.301 648.335L723.906 658.94L720.407 731.16L756.252 695.315L767.493 706.556L710.756 763.293L700.787 753.325L704.393 679.726L664.412 719.707L653.171 708.465L713.301 648.335Z" fill="#181D1F"/>
<path d="M673.272 482.862L657.364 498.77C648.456 490.71 637.427 499.194 632.124 504.496C624.807 511.814 618.762 521.677 624.064 526.979C628.413 531.327 632.336 530.373 650.259 516.692C669.984 501.633 681.12 494.528 693.952 507.36C709.965 523.373 693.421 544.159 683.983 553.598C675.287 562.294 653.122 581.913 634.245 564.733L649.517 549.462C659.061 556.673 669.772 547.871 674.757 542.887C683.028 534.615 683.983 526.661 681.013 523.692C676.453 519.131 674.332 519.768 658.213 531.857C637.109 547.659 623.216 557.946 610.172 544.902C595.855 530.585 604.657 512.026 622.05 494.634C634.033 482.65 655.561 466.212 673.272 482.862Z" fill="#181D1F"/>
<path d="M698.373 444.261L751.398 391.236C744.823 385.297 730.93 379.889 716.402 394.418C706.751 404.068 705.903 411.704 707.705 419.233L691.798 435.141C688.722 425.702 683.95 405.659 705.372 384.237C730.718 358.891 754.898 364.193 769.851 379.146C788.622 397.917 786.713 423.793 766.775 443.731C741.854 468.653 716.932 462.82 700.494 446.382L698.373 444.261ZM760.731 400.568L722.977 438.322C736.021 447.761 749.383 441.186 756.595 433.974C763.382 427.187 769.745 414.461 760.731 400.568Z" fill="#181D1F"/>
<path d="M363.147 782.685V891.568H342.451V830.377L305.706 862.173H276.46L313.205 832.177L273.311 782.685H301.207L329.402 818.979L342.451 808.331V782.685H363.147Z" fill="#181D1F"/>
<path d="M917.852 583.512H992.841C992.391 574.664 986.392 561.016 965.845 561.016C952.197 561.016 946.198 565.815 942.148 572.414H919.652C924.151 563.565 934.949 546.018 965.245 546.018C1001.09 546.018 1014.44 566.865 1014.44 588.012C1014.44 614.558 994.79 631.505 966.595 631.505C931.35 631.505 917.852 609.759 917.852 586.512V583.512ZM992.841 596.711H939.449C941.998 612.608 956.096 617.407 966.295 617.407C975.893 617.407 989.391 612.908 992.841 596.711Z" fill="#181D1F"/>
<path d="M553.17 752.729V767.726L499.628 816.319H550.32V832.217H470.082V818.119L524.674 768.626H468.133V752.729H553.17Z" fill="#181D1F"/>
<path d="M641.873 607.417H619.376C618.776 595.419 604.979 593.619 597.48 593.619C587.131 593.619 575.883 596.319 575.883 603.818C575.883 609.967 579.332 612.067 601.679 615.066C626.275 618.366 639.173 621.215 639.173 639.363C639.173 662.009 612.777 665.009 599.429 665.009C587.131 665.009 557.586 663.209 556.386 637.713H577.983C579.632 649.561 593.43 650.911 600.479 650.911C612.177 650.911 618.477 645.962 618.477 641.762C618.477 635.313 616.527 634.263 596.58 631.414C570.484 627.664 553.386 625.115 553.386 606.667C553.386 586.42 572.733 579.521 597.33 579.521C614.277 579.521 641.123 583.121 641.873 607.417Z" fill="#181D1F"/>
<path d="M686.916 597.871H761.905C761.455 589.022 755.456 575.374 734.909 575.374C721.261 575.374 715.262 580.174 711.213 586.773H688.716C693.215 577.924 704.014 560.376 734.309 560.376C770.154 560.376 783.502 581.223 783.502 602.37C783.502 628.916 763.855 645.864 735.659 645.864C700.414 645.864 686.916 624.117 686.916 600.87V597.871ZM761.905 611.069H708.513C711.063 626.967 725.161 631.766 735.359 631.766C744.958 631.766 758.456 627.267 761.905 611.069Z" fill="#181D1F"/>
<path d="M210.589 600.155L133.597 677.148L118.962 662.513L162.23 619.245L113.765 615.745L93.0855 595.065L140.278 599.837L147.065 536.631L166.79 556.357L161.064 601.958L177.82 603.655L195.954 585.521L210.589 600.155Z" fill="#181D1F"/>
<path d="M743.661 851.555L796.686 904.58C802.625 898.005 808.034 884.112 793.505 869.583C783.854 859.933 776.219 859.084 768.689 860.887L752.782 844.98C762.22 841.904 782.263 837.132 803.686 858.554C829.032 883.9 823.729 908.079 808.776 923.033C790.005 941.803 764.129 939.895 744.191 919.957C719.27 895.035 725.102 870.113 741.54 853.676L743.661 851.555ZM787.354 913.912L749.6 876.158C740.162 889.202 746.737 902.565 753.948 909.776C760.735 916.563 773.461 922.926 787.354 913.912Z" fill="#181D1F"/>
<path d="M366.138 713.34L355.533 723.945L283.313 720.445L319.158 756.29L307.917 767.531L251.18 710.795L261.149 700.826L334.747 704.432L294.766 664.451L306.008 653.209L366.138 713.34Z" fill="#181D1F"/>
<path d="M531.611 673.311L515.703 657.404C523.763 648.496 515.279 637.466 509.977 632.164C502.659 624.846 492.797 618.802 487.494 624.104C483.146 628.452 484.1 632.376 497.781 650.298C512.84 670.024 519.945 681.159 507.113 693.991C491.1 710.005 470.314 693.461 460.875 684.022C452.179 675.326 432.56 653.162 449.74 634.285L465.011 649.556C457.8 659.101 466.602 669.812 471.587 674.796C479.858 683.068 487.812 684.022 490.782 681.053C495.342 676.493 494.706 674.372 482.616 658.252C466.814 637.148 456.527 623.256 469.572 610.211C483.888 595.895 502.447 604.697 519.839 622.089C531.823 634.073 548.261 655.601 531.611 673.311Z" fill="#181D1F"/>
<path d="M570.212 698.412L623.237 751.437C629.176 744.862 634.584 730.969 620.056 716.441C610.405 706.79 602.769 705.942 595.24 707.744L579.332 691.837C588.771 688.761 608.814 683.989 630.236 705.411C655.582 730.757 650.28 754.937 635.327 769.89C616.556 788.661 590.68 786.752 570.742 766.814C545.82 741.893 551.653 716.971 568.091 700.533L570.212 698.412ZM613.905 760.77L576.151 723.016C566.712 736.06 573.287 749.422 580.499 756.634C587.286 763.421 600.012 769.784 613.905 760.77Z" fill="#181D1F"/>
<path d="M231.781 363.196H122.897V342.499H184.088L152.293 305.754L152.293 276.509L182.289 313.253L231.781 273.359L231.781 301.255L195.487 329.451L206.135 342.499H231.781V363.196Z" fill="#181D1F"/>
<path d="M430.954 917.901V992.89C439.802 992.44 453.45 986.44 453.45 965.894C453.45 952.246 448.651 946.246 442.052 942.197V919.7C450.901 924.2 468.448 934.998 468.448 965.294C468.448 1001.14 447.601 1014.49 426.454 1014.49C399.908 1014.49 382.961 994.839 382.961 966.643C382.961 931.399 404.708 917.901 427.954 917.901H430.954ZM417.756 992.89V939.497C401.858 942.047 397.059 956.145 397.059 966.343C397.059 975.942 401.558 989.44 417.756 992.89Z" fill="#181D1F"/>
<path d="M261.737 553.219H246.739L198.147 499.677V550.37H182.249L182.249 470.132H196.347L245.84 524.723L245.84 468.182H261.737V553.219Z" fill="#181D1F"/>
<path d="M407.048 641.921V619.425C419.047 618.825 420.846 605.027 420.846 597.528C420.846 587.18 418.147 575.931 410.648 575.931C404.499 575.931 402.399 579.381 399.4 601.727C396.1 626.324 393.251 639.222 375.103 639.222C352.457 639.222 349.457 612.826 349.457 599.478C349.457 587.179 351.257 557.634 376.753 556.434V578.031C364.905 579.681 363.555 593.479 363.555 600.528C363.555 612.226 368.504 618.525 372.704 618.525C379.153 618.525 380.202 616.575 383.052 596.628C386.801 570.532 389.351 553.435 407.798 553.435C428.045 553.435 434.944 572.782 434.944 597.378C434.944 614.325 431.345 641.171 407.048 641.921Z" fill="#181D1F"/>
<path d="M416.594 686.965V761.954C425.443 761.504 439.091 755.505 439.091 734.958C439.091 721.31 434.292 715.311 427.693 711.262V688.765C436.541 693.264 454.089 704.063 454.089 734.358C454.089 770.203 433.242 783.551 412.095 783.551C385.549 783.551 368.602 763.904 368.602 735.708C368.602 700.463 390.348 686.965 413.595 686.965H416.594ZM403.396 761.954V708.562C387.499 711.112 382.699 725.209 382.699 735.408C382.699 745.006 387.199 758.504 403.396 761.954Z" fill="#181D1F"/>
<path d="M414.324 210.563L337.331 133.571L351.966 118.936L395.234 162.204L398.734 113.739L419.414 93.0596L414.642 140.252L477.848 147.039L458.122 166.765L412.521 161.038L410.824 177.794L428.958 195.928L414.324 210.563Z" fill="#181D1F"/>
<path d="M162.925 743.635L109.9 796.66C116.475 802.599 130.367 808.007 144.896 793.478C154.547 783.828 155.395 776.192 153.592 768.663L169.5 752.755C172.575 762.194 177.348 782.237 155.926 803.659C130.58 829.005 106.4 823.703 91.447 808.75C72.6761 789.979 74.585 764.103 94.5224 744.165C119.444 719.243 144.366 725.076 160.804 741.514L162.925 743.635ZM100.567 787.328L138.321 749.574C125.277 740.135 111.915 746.71 104.703 753.922C97.916 760.709 91.553 773.435 100.567 787.328Z" fill="#181D1F"/>
<path d="M301.139 366.112L290.534 355.507L294.034 283.287L258.189 319.132L246.948 307.89L303.684 251.153L313.653 261.122L310.047 334.721L350.028 294.74L361.27 305.981L301.139 366.112Z" fill="#181D1F"/>
<path d="M341.168 531.585L357.075 515.677C365.983 523.737 377.013 515.253 382.315 509.95C389.633 502.633 395.677 492.77 390.375 487.468C386.027 483.12 382.103 484.074 364.181 497.755C344.455 512.814 333.32 519.919 320.488 507.087C304.474 491.073 321.018 470.288 330.457 460.849C339.153 452.153 361.317 432.534 380.194 449.714L364.923 464.985C355.378 457.774 344.667 466.576 339.683 471.56C331.411 479.832 330.457 487.786 333.426 490.755C337.986 495.315 340.107 494.679 356.227 482.589C377.331 466.788 391.223 456.501 404.268 469.545C418.584 483.862 409.782 502.421 392.39 519.813C380.406 531.797 358.878 548.235 341.168 531.585Z" fill="#181D1F"/>
<path d="M316.067 570.186L263.042 623.211C269.617 629.15 283.51 634.558 298.039 620.029C307.689 610.379 308.538 602.743 306.735 595.213L322.643 579.306C325.718 588.744 330.49 608.788 309.068 630.21C283.722 655.556 259.543 650.254 244.59 635.3C225.819 616.53 227.728 590.653 247.665 570.716C272.587 545.794 297.509 551.627 313.946 568.065L316.067 570.186ZM253.71 613.878L291.464 576.124C278.42 566.686 265.057 573.261 257.846 580.472C251.059 587.26 244.696 599.986 253.71 613.878Z" fill="#181D1F"/>
</svg>
